HIERARCHY
ROOT Hips
{
	OFFSET -3.958830 18.904000 13.208200
	CHANNELS 6 Xposition Yposition Zposition Zrotation Yrotation Xrotation 
	JOINT LHipJoint
	{
		OFFSET 0.000000 0.000000 0.000000
		CHANNELS 3 Zrotation Yrotation Xrotation
		JOINT LeftUpLeg
		{
			OFFSET 1.800000 -1.400000 0.085000
			CHANNELS 3 Zrotation Yrotation Xrotation
			JOINT LeftLeg
			{
				OFFSET 2.215000 -6.000000 0.000000
				CHANNELS 3 Zrotation Yrotation Xrotation
				JOINT LeftFoot
				{
					OFFSET 2.500000 -6.900000 0.000000
					CHANNELS 3 Zrotation Yrotation Xrotation
					JOINT LeftToeBase
					{
						OFFSET 0.200000 -0.500000 1.950000
						CHANNELS 3 Zrotation Yrotation Xrotation
						End Site
						{
							OFFSET 0.000000 0.000000 0.000000
						}
					}
				}
			}
		}
	}
	JOINT RHipJoint
	{
		OFFSET 0.000000 0.000000 0.000000
		CHANNELS 3 Zrotation Yrotation Xrotation
		JOINT RightUpLeg
		{
			OFFSET -1.800000 -1.400000 0.085000
			CHANNELS 3 Zrotation Yrotation Xrotation
			JOINT RightLeg
			{
				OFFSET -2.215000 -6.000000 0.000000
				CHANNELS 3 Zrotation Yrotation Xrotation
				JOINT RightFoot
				{
					OFFSET -2.500000 -6.900000 0.000000
					CHANNELS 3 Zrotation Yrotation Xrotation
					JOINT RightToeBase
					{
						OFFSET -0.200000 -0.500000 1.950000
						CHANNELS 3 Zrotation Yrotation Xrotation
						End Site
						{
							OFFSET 0.000000 0.000000 0.000000
						}
					}
				}
			}
		}
	}
	JOINT LowerBack
	{
		OFFSET 0.000000 0.000000 0.000000
		CHANNELS 3 Zrotation Yrotation Xrotation
		JOINT Spine
		{
			OFFSET -0.087000 1.940000 -0.288900
			CHANNELS 3 Zrotation Yrotation Xrotation
			JOINT Spine1
			{
				OFFSET 0.000000 1.950000 0.060000
				CHANNELS 3 Zrotation Yrotation Xrotation
				JOINT Neck
				{
					OFFSET 0.000000 0.000000 0.000000
					CHANNELS 3 Zrotation Yrotation Xrotation
					JOINT Neck1
					{
						OFFSET 0.000000 1.600000 0.340000
						CHANNELS 3 Zrotation Yrotation Xrotation
						JOINT Head
						{
							OFFSET 0.000000 1.667000 -0.240000
							CHANNELS 3 Zrotation Yrotation Xrotation
							End Site
							{
								OFFSET 0.000000 0.000000 0.000000
							}
						}
					}
				}
				JOINT LeftShoulder
				{
					OFFSET 0.000000 0.000000 0.000000
					CHANNELS 3 Zrotation Yrotation Xrotation
					JOINT LeftArm
					{
						OFFSET 2.700000 1.550000 -0.730000
						CHANNELS 3 Zrotation Yrotation Xrotation
						JOINT LeftForeArm
						{
							OFFSET 5.450000 0.000000 0.000000
							CHANNELS 3 Zrotation Yrotation Xrotation
							JOINT LeftHand
							{
								OFFSET 3.450000 0.000000 0.000000
								CHANNELS 3 Zrotation Yrotation Xrotation
								JOINT LeftHandIndex1
								{
									OFFSET 0.750000 0.000000 0.000000
									CHANNELS 3 Zrotation Yrotation Xrotation
									End Site
									{
										OFFSET 0.000000 0.000000 0.000000
									}
								}
							}
						}
					}
				}
				JOINT RightShoulder
				{
					OFFSET 0.000000 0.000000 0.000000
					CHANNELS 3 Zrotation Yrotation Xrotation
					JOINT RightArm
					{
						OFFSET -2.700000 1.550000 -0.730000
						CHANNELS 3 Zrotation Yrotation Xrotation
						JOINT RightForeArm
						{
							OFFSET -5.450000 0.000000 0.000000
							CHANNELS 3 Zrotation Yrotation Xrotation
							JOINT RightHand
							{
								OFFSET -3.450000 0.000000 0.000000
								CHANNELS 3 Zrotation Yrotation Xrotation
								JOINT RightHandIndex1
								{
									OFFSET -0.750000 0.000000 0.000000
									CHANNELS 3 Zrotation Yrotation Xrotation
									End Site
									{
										OFFSET 0.000000 0.000000 0.000000
									}
								}
							}
						}
					}
				}
			}
		}
	}
}
MOTION
Frames: 13
Frame Time: 0.016667
-0.557770 17.009670 -4.135640 -5.894891 33.486732 -8.969540 -15.324192 12.598308 2.105480 6.928914 0.848271 14.607391 -1.084141 6.599047 15.113110 -0.000004 5.966163 2.813247 0.646560 0.051050 0.605790 18.527690 -7.973711 6.034647 -12.529818 12.434214 -56.499239 23.336885 -27.187822 64.090334 -2.506828 -12.665562 0.570935 -0.023790 -0.015450 0.104870 -4.261500 -2.903243 -9.200704 19.901577 -10.544815 31.316165 -7.268801 -5.821551 -0.749320 3.864688 -0.658482 -7.030557 -4.526234 -3.950801 42.717013 3.994210 -5.283360 -18.679610 -14.934121 7.822150 -0.828998 -38.453584 10.192532 -14.274696 50.348808 -78.846934 -39.777173 -2.920963 2.077126 0.968440 -0.151190 0.052500 0.200150 7.022109 -8.646664 5.619404 44.211384 -17.664832 -16.368075 41.294881 77.007503 24.843825 1.639916 -2.032914 -0.238420 0.231900 -0.167940 -0.450760 
-0.632490 16.921710 -4.175280 -5.557092 33.779730 -10.362221 -15.411475 12.527015 2.102373 7.958536 1.113661 16.610212 -1.611399 6.856246 14.084309 -0.040513 6.272133 2.714271 0.673910 0.069040 0.628450 18.491300 -7.620528 6.256644 -15.603488 12.524973 -58.337525 25.626861 -29.574720 65.980509 -2.714695 -13.427643 0.364265 0.037570 0.021010 0.117770 -3.980321 -3.240639 -9.316894 17.388073 -9.440253 34.561188 -5.170115 -5.206800 1.123108 3.250705 0.469308 -6.931237 -2.320299 -5.187513 39.869134 4.625760 -5.328980 -21.163970 -15.878819 4.679166 -0.858405 -29.793277 12.955582 -13.659928 67.628349 -80.675324 -53.784184 -2.812228 0.983380 1.006420 -0.128950 0.042040 0.197190 9.431945 -6.212804 5.614084 36.563426 -19.047580 -14.860803 41.194490 80.107803 25.671438 1.622215 -2.010668 -0.291470 0.288470 -0.139950 -0.478610 
-0.708850 16.857360 -4.208350 -4.713710 33.779274 -11.018771 -15.523067 12.660334 2.064771 8.611157 1.360468 16.994070 -1.695086 7.140670 15.106714 -0.059622 6.472852 2.641935 0.723490 0.126330 0.661040 18.401031 -7.351668 6.392787 -17.842136 12.629928 -58.937693 26.339950 -30.533630 67.388954 -2.821717 -13.808198 0.256838 0.096870 0.029940 0.124070 -3.580285 -3.821414 -9.343695 14.055316 -7.752132 37.387964 -2.441478 -4.484725 2.787353 2.516752 1.266724 -7.097757 -0.789393 -6.006141 37.097202 5.365440 -5.328060 -23.167960 -17.009705 1.668924 -0.558071 -21.848591 16.951157 -12.721821 74.941298 -81.412895 -60.354594 -2.782979 0.299312 1.017200 -0.124690 0.045870 0.204900 12.157213 -3.332154 5.801834 28.359377 -20.534869 -12.808697 45.308506 82.111250 28.955859 1.665596 -1.981366 -0.305390 0.318920 -0.146990 -0.487290 
-0.768630 16.811470 -4.231730 -4.436710 33.800125 -10.618021 -15.598986 12.743952 2.015632 9.681373 1.337482 16.292312 -2.672216 7.486802 15.318360 -0.094453 6.566792 2.587490 0.778820 0.198060 0.686220 18.343101 -7.175381 6.476005 -19.329280 12.676609 -59.573132 27.193498 -30.123916 66.114364 -2.770085 -13.637378 0.278092 0.155050 0.024190 0.149910 -3.299385 -4.180046 -9.334021 11.963339 -6.236812 37.729546 -0.276770 -3.754894 4.438921 2.112545 2.426806 -7.261178 1.389306 -6.937970 34.913346 5.255010 -5.231670 -23.879460 -17.649580 -0.919995 -0.310439 -14.935158 20.719948 -11.893095 73.152621 -84.009850 -61.690332 -2.880487 0.395196 0.999300 -0.104200 0.048320 0.209000 13.697432 -1.273891 6.076773 21.705593 -20.959469 -10.573757 49.893595 82.521945 32.162635 1.716922 -1.948429 -0.287860 0.308460 -0.156850 -0.490930 
-0.798540 16.793000 -4.226450 -4.534033 35.874416 -10.197958 -15.647803 12.781565 2.017183 11.141533 1.050052 15.849289 -3.470210 7.563039 14.039573 -0.086550 6.547976 2.584751 0.801680 0.242830 0.704490 18.296502 -7.126352 6.447687 -20.625273 11.447812 -59.626380 27.233250 -29.138405 63.914838 -2.626117 -13.192444 0.362737 0.175630 0.008760 0.158210 -3.143443 -4.335534 -9.310576 10.985786 -5.699113 37.061131 1.127252 -3.704371 5.366527 2.122250 3.815385 -7.763319 3.920753 -7.978767 33.568207 5.212940 -5.155320 -23.748610 -17.526373 -2.679440 0.444320 -10.019152 23.745860 -10.628433 61.561258 -88.534390 -58.656222 -3.130616 1.617580 0.967380 -0.094630 0.054520 0.204200 13.754746 -0.396942 6.298767 17.889716 -21.007561 -8.895293 54.771082 81.048639 34.772101 1.798152 -1.887249 -0.260690 0.286480 -0.174470 -0.485130 
-0.837970 16.839830 -4.207040 -3.477176 36.121161 -10.028127 -15.716792 13.051513 2.170752 10.971884 1.294169 15.652379 -3.732051 7.673897 14.097299 -0.081061 6.570586 2.571620 0.746640 0.150290 0.727870 18.160102 -7.367497 6.108046 -19.410155 11.306703 -55.940016 24.302749 -25.517908 61.457072 -2.334025 -12.132912 0.613134 0.103900 -0.028250 0.160120 -2.845570 -4.553936 -9.185264 8.661913 -4.018111 38.210706 2.417240 -2.715430 5.796673 2.184899 5.032765 -9.382772 6.022697 -8.740603 34.413783 5.407830 -4.443630 -24.843080 -17.209406 -4.975323 2.633964 -9.384592 25.661762 -9.703846 37.246306 -89.939733 -41.041981 -3.248514 2.818111 1.042660 -0.124560 0.088000 0.162790 13.213153 1.862878 6.942859 17.865301 -21.342092 -9.749309 56.932066 75.566019 32.922064 1.806331 -1.799281 -0.285950 0.270520 -0.154240 -0.530220 
-0.838910 16.871920 -4.160520 -4.210927 39.283251 -9.156853 -15.674278 13.126568 2.247173 12.146506 0.558625 14.658212 -3.331425 7.273345 12.753643 -0.101141 6.376793 2.630147 0.689330 0.068110 0.715030 18.122802 -7.807797 5.766897 -18.189867 9.347729 -53.634362 22.148154 -22.676159 56.951767 -1.980312 -10.928024 0.907323 0.030830 -0.056240 0.168200 -3.022457 -4.145503 -9.084382 10.174323 -5.092147 35.944681 1.989314 -3.317345 6.301833 2.109778 5.699030 -11.267867 7.460833 -9.630510 34.721561 5.894140 -4.725680 -24.297640 -15.547081 -5.358961 5.469337 -12.232457 24.261852 -6.649300 -59.369886 -89.849046 47.894130 -3.534648 3.057357 1.061660 -0.141330 0.095480 0.128510 11.344003 1.787552 7.131564 21.243612 -21.768794 -10.859366 62.751420 69.719164 32.790253 1.834169 -1.751943 -0.277420 0.220810 -0.134280 -0.544420 
-0.852330 16.945770 -4.098860 -3.448068 40.328121 -8.009265 -15.660040 13.336964 2.479432 11.856472 0.559769 14.422145 -2.992787 6.899195 11.136330 -0.055867 6.157086 2.692875 0.642350 0.004240 0.709670 18.029960 -8.333274 5.263224 -15.506726 8.674227 -49.703979 17.878332 -18.234081 52.337367 -1.554615 -9.276446 1.368034 -0.055160 -0.113590 0.172380 -3.053522 -3.905191 -8.942769 9.966240 -4.915327 35.222680 1.915939 -2.979739 5.219299 1.798158 5.900055 -12.497040 7.879988 -10.255721 36.106987 6.971700 -5.101710 -24.466200 -13.588067 -6.001396 6.585579 -17.651958 23.967337 -7.896801 -76.918630 -84.932075 57.939621 -3.715454 2.511085 1.088170 -0.184670 0.126980 0.095840 9.598915 2.497575 7.795487 25.477125 -21.521032 -12.473797 65.193555 62.853632 29.791977 1.840019 -1.742077 -0.244840 0.155250 -0.134600 -0.551880 
-0.854230 17.028500 -4.020990 -3.039784 42.055452 -7.100641 -15.636291 13.602812 2.714493 12.051045 0.395540 13.702601 -2.750795 6.621299 9.885506 -0.059224 6.006201 2.739425 0.555460 -0.117550 0.697430 17.917419 -8.964673 4.661944 -12.749995 7.461120 -44.818268 14.265713 -14.302686 45.975114 -1.113874 -7.443551 1.926892 -0.154900 -0.143770 0.171110 -3.131382 -3.625627 -8.743075 10.425238 -5.283250 34.426462 1.234876 -2.830443 3.170352 1.824706 6.209738 -13.444750 8.486244 -11.188806 37.408463 7.089490 -5.705950 -24.261330 -12.587878 -6.467864 7.251687 -23.542564 24.133090 -10.264884 -80.486235 -79.652924 56.066255 -3.580332 2.810050 1.127850 -0.207140 0.136630 0.041880 8.200245 2.820269 8.517324 30.551766 -21.327374 -14.195350 64.792728 56.957933 25.784451 1.833539 -1.673541 -0.250740 0.120260 -0.095990 -0.578160 
-0.860800 17.103280 -3.928630 -2.011139 43.707642 -4.746542 -15.625674 13.856452 2.870629 11.787901 0.240729 11.566915 -2.792748 6.409606 9.611221 -0.136136 5.817708 2.811570 0.436720 -0.288730 0.661530 17.800850 -9.546735 4.173196 -10.405135 6.236968 -40.902264 10.842819 -10.904587 39.148341 -0.712413 -5.661493 2.513651 -0.255780 -0.121650 0.164370 -3.175158 -3.382828 -8.555890 9.922488 -5.093631 32.131780 1.250684 -2.469226 1.141754 1.654324 6.330322 -14.260816 8.693584 -11.778647 38.692050 7.572330 -6.749360 -22.961820 -11.993441 -6.900569 7.876554 -29.892494 23.300975 -12.362799 -73.785523 -75.318779 47.319027 -3.380870 3.153021 1.169060 -0.205410 0.116180 -0.007760 7.708683 3.301937 9.067537 35.102349 -20.966399 -15.478429 61.823486 51.270236 21.007761 1.831130 -1.550509 -0.298190 0.123320 -0.027830 -0.603330 
-0.868260 17.159010 -3.841620 -1.265997 45.949134 -1.919707 -15.576770 13.980182 2.886161 11.472084 -0.063722 8.417521 -2.344197 6.041697 10.011900 -0.254584 5.479240 2.906212 0.372660 -0.388780 0.621350 17.744033 -10.105963 3.827293 -8.638865 5.011486 -37.868942 8.393460 -8.534348 32.427553 -0.414221 -4.238974 2.998610 -0.308850 -0.114500 0.173130 -3.423388 -2.907743 -8.376903 10.515581 -5.455904 28.303898 0.577821 -2.649634 0.118276 1.367320 6.361395 -14.499180 8.771208 -12.240940 38.724628 8.026470 -8.161530 -20.731150 -11.898966 -7.188848 8.233849 -35.111900 22.021523 -13.946631 -66.543626 -72.079371 39.541858 -3.290051 3.285226 1.159650 -0.193890 0.078960 -0.039860 7.981513 3.317799 9.043680 39.877432 -19.607858 -16.462991 56.191557 46.677812 16.269965 1.833218 -1.481164 -0.305430 0.080580 0.018150 -0.611220 
-0.869690 17.178870 -3.747120 -0.733553 48.065327 1.108379 -15.505486 13.953629 2.781347 11.237487 -0.402615 4.880408 -2.079418 5.754171 11.039093 -0.386053 5.151034 3.016128 0.347640 -0.422770 0.580640 17.755151 -10.552841 3.606221 -7.262152 4.100793 -35.273051 7.266334 -6.934368 25.845142 -0.215267 -3.196369 3.383110 -0.309890 -0.075520 0.172700 -3.754599 -2.308479 -8.169312 11.412406 -5.728854 23.166980 -0.352460 -3.144665 0.824045 1.183471 6.641669 -14.159976 9.422384 -12.880012 36.681386 7.441690 -9.302460 -18.513730 -11.632779 -7.278214 8.229489 -39.408159 19.725473 -15.126026 -58.329945 -68.970606 31.668250 -3.259845 3.321801 1.116030 -0.157170 0.028660 -0.030220 7.962176 2.683949 8.565725 44.963153 -17.259929 -17.159491 50.330306 43.052960 12.461675 1.822725 -1.447201 -0.316000 0.075870 0.037580 -0.599250 
-0.859870 17.188390 -3.661420 -0.904637 49.810102 3.214211 -15.418796 13.835003 2.636319 10.988078 -0.646535 2.099544 -1.483077 5.446104 11.899148 -0.511446 4.913424 3.110770 0.278870 -0.507800 0.515540 17.818984 -10.868351 3.489277 -6.209903 3.587012 -32.737128 7.134930 -5.853537 19.802859 -0.059561 -2.552649 3.650417 -0.322810 -0.002200 0.158380 -4.133158 -1.682151 -7.969479 13.442755 -5.789736 18.571049 -2.207785 -3.245606 1.355254 1.190192 7.093081 -13.807092 10.474728 -13.992038 33.755640 5.773420 -10.629020 -14.999210 -12.091466 -7.304917 8.072497 -43.126072 17.450824 -15.841454 -50.749740 -68.046589 26.029769 -3.310552 3.291264 1.057410 -0.089710 -0.058640 -0.031720 8.089543 1.961549 8.511738 50.542663 -16.568565 -18.496052 44.999058 42.268803 10.201504 1.785597 -1.425175 -0.358820 0.091290 0.086250 -0.593130 
